# xmcd
#
# Track frame offsets: 
#        183
#        49385
#        85728
#        141940
#        157658
#        180973
#        195338
#        231668
#
# Disc length: 3223 seconds
#
# Revision: 4
# Processed by: cddbd v1.5.2PL0 Copyright (c) Steve Scherf et al.
# Submitted via: ExactAudioCopy v0.99pb4
#
DISCID=5f0c9508
DTITLE=Jimi Hendrix - Woke Up This Morning And Found Myself Dead (Boot
DTITLE=Leg)
DYEAR=1968
DGENRE=Progressive Rock
TTITLE0=Red House (Live)
TTITLE1=Wake Up This Morning And You Find Yourself Dead (Live)
TTITLE2=Bleeding Heart (Live)
TTITLE3=Morrison's Lament (Live)
TTITLE4=Tomorrow Never Knows (Live)
TTITLE5=Uranus Rock (Live)
TTITLE6=Outside Woman Blues (Live)
TTITLE7=Sunshine Of Your Love (Live)
EXTD=Live at the "Scene-Club", NYCity 1968\nFeaturing Jim Morrison, Jo
EXTD=hnny Winter, Buddy Miles YEAR: 1968
EXTT0=
EXTT1=
EXTT2=
EXTT3=
EXTT4=
EXTT5=
EXTT6=
EXTT7=
PLAYORDER=
